<?xml version="1.0" encoding="iso-8859-1"?>
<!-- Uploaded to: SVG Repo, www.svgrepo.com, Generator: SVG Repo Mixer Tools -->
<!DOCTYPE svg PUBLIC "-//W3C//DTD SVG 1.1//EN" "http://www.w3.org/Graphics/SVG/1.1/DTD/svg11.dtd">
<svg fill="#000000" version="1.1" id="Capa_1" xmlns="http://www.w3.org/2000/svg" xmlns:xlink="http://www.w3.org/1999/xlink" 
	 width="800px" height="800px" viewBox="0 0 957.614 957.614"
	 xml:space="preserve">
<g>
	<path d="M533.715,400.207c5.6,0,11,0.9,16.199,2.4l97.301-119.3c6.1-7.5,17.1-8.6,24.6-2.5s8.6,17.1,2.5,24.6l-95.9,117.6
		c6.5,9,10.4,20.101,10.4,32.101c0,22.3-13.4,41.6-32.5,50.2h391.3c5.5,0,10-4.5,10-10v-346.5c0-5.5-4.5-10-10-10h-508
		c-5.5,0-10,4.5-10,10v222.8l22.601,28.6H533.715L533.715,400.207z"/>
	<path d="M96.214,522.108c6.9,9,17.3,13.699,27.8,13.699c0.4,0,0.8,0,1.2,0l-59.9,170c-3.4,9.801,3.8,20,14.1,20h68.6v171
		c0,26,21.1,47,47,47c25.9,0,47-21.1,47-47v-171h22.7v171c0,26,21.1,47,47,47c25.899,0,47-21.1,47-47v-171h68.6
		c10.3,0,17.6-10.199,14.1-20l-82.8-235v-43.4l39.2,49.5c6.6,8.4,16.7,13.3,27.4,13.3h4h104.2c19.301,0,35-15.701,35-35
		c0-5.7-1.399-11-3.8-15.8c-5.399-10.7-16.1-18.2-28.6-19.1c-0.9-0.101-1.7-0.101-2.601-0.101h-91.2l-12.9-16.3
		c0,0-65.8-79.3-85.2-107.5c-20.399-29.8-52.2-52-90.9-52c-39,0-75.9,26.3-109.7,44c-41.6,21.8-83.2,43.7-124.8,65.5
		c-9.1,4.8-15.7,13.4-17.9,23.4c-2.2,10.1,0.1,20.6,6.4,28.8L96.214,522.108z M156.914,363.707v107.101l0,0l-59.8-75.801
		L156.914,363.707z"/>
	<path d="M376.814,204.807c-8.7-4.7-27.8-18.2-27.8-46c0-36,9-145-95.5-145s-95.5,109-95.5,145c0,27.8-19.1,41.3-27.8,46
		c-2.6,1.4-3.8,4.4-2.9,7.1c5.8,18.6,20.4,24.3,36.1,24.3c24.1,0,50.6-13.4,50.6-13.4c-12.5-7.3-18.9-21.8-22-36.4
		c13.1,21.7,35.8,36,61.5,36c25.7,0,48.399-14.3,61.5-36c-3.101,14.7-9.5,29.1-22,36.4c0,0,26.5,13.4,50.6,13.4
		c15.601,0,30.3-5.6,36.101-24.3C380.614,209.207,379.414,206.207,376.814,204.807z"/>
</g>
</svg>